# xmcd
#
# Track frame offsets:
# 150
# 17152
# 33595
# 46925
# 66740
# 78320
# 97062
# 113540
# 130970
# 149842
#
# Disc length: 2255 seconds
#
#
# Revision: 0
# Processed by: cddbd v1.5.1PL0 Copyright (c) Steve Scherf et al.
# Submitted via: FreeRIP 2.941 
#
DISCID=9208cd0a
DTITLE=Jukebox Dance Corral, The - Country Lovin Hits
DYEAR=1900
DGENRE=Country
TTITLE0=Livin' on Love
TTITLE1=Your Love Amazes Me
TTITLE2=She's Every Woman
TTITLE3=I Swear
TTITLE4=My Baby Loves Me
TTITLE5=Don't Take the Girl
TTITLE6=Love Me
TTITLE7=Rope the Moon
TTITLE8=When You Say Nothing at All
TTITLE9=If Tomorrow Never Comes
EXTD=
EXTT0=
EXTT1=
EXTT2=
EXTT3=
EXTT4=
EXTT5=
EXTT6=
EXTT7=
EXTT8=
EXTT9=
PLAYORDER=
